<?xml version="1.0" standalone="no"?><!DOCTYPE svg PUBLIC "-//W3C//DTD SVG 1.1//EN" "http://www.w3.org/Graphics/SVG/1.1/DTD/svg11.dtd"><svg t="1547624338598" class="icon" style="" viewBox="0 0 1024 1024" version="1.1" xmlns="http://www.w3.org/2000/svg" p-id="4971" xmlns:xlink="http://www.w3.org/1999/xlink" width="200" height="200"><defs><style type="text/css"></style></defs><path d="M654.72 927.36H364.16c-87.04 0-158.08-71.04-158.08-158.08V279.04c0-87.04 71.04-158.08 158.08-158.08h290.56c87.04 0 158.08 71.04 158.08 158.08v490.24c0 87.04-71.04 158.08-158.08 158.08zM364.16 184.32c-51.84 0-94.08 42.24-94.08 94.08v490.24c0 51.84 42.24 94.08 94.08 94.08h290.56c51.84 0 94.08-42.24 94.08-94.08V279.04c0-51.84-42.24-94.08-94.08-94.08H364.16z" fill="#515151" p-id="4972"></path><path d="M599.68 792.32H419.2c-17.92 0-32-14.08-32-32s14.08-32 32-32h181.12c17.92 0 32 14.08 32 32s-14.72 32-32.64 32z" fill="#515151" p-id="4973"></path></svg>